<svg xmlns="http://www.w3.org/2000/svg" width="181.144" height="181.137" viewBox="0 0 181.144 181.137">
  <g id="play" transform="translate(-452.411 246.589)">
    <g id="Grupo_11" data-name="Grupo 11" transform="translate(517.235 -197.196)">
      <path id="Trazado_104" data-name="Trazado 104" d="M528.516-192.687,473.45-160.148a7.5,7.5,0,0,1-11.327-6.461V-231.7c0-6.541,6.848-9.1,11.327-6.461l55.066,32.552A7.5,7.5,0,0,1,528.516-192.687Z" transform="translate(-462.123 239.189)" fill="#fff"/>
    </g>
    <g id="Grupo_12" data-name="Grupo 12" transform="translate(452.411 -246.589)">
      <path id="Trazado_105" data-name="Trazado 105" d="M542.98-65.451a90.671,90.671,0,0,1-90.569-90.569,90.671,90.671,0,0,1,90.569-90.569,90.673,90.673,0,0,1,90.576,90.569A90.672,90.672,0,0,1,542.98-65.451Zm0-174.463a83.99,83.99,0,0,0-83.894,83.894A83.99,83.99,0,0,0,542.98-72.126a83.991,83.991,0,0,0,83.9-83.894A83.991,83.991,0,0,0,542.98-239.914Z" transform="translate(-452.411 246.589)" fill="#fff"/>
    </g>
  </g>
</svg>
