<svg xmlns="http://www.w3.org/2000/svg" width="206.893" height="38.969" viewBox="0 0 206.893 38.969">
  <g id="Grupo_28" data-name="Grupo 28" transform="translate(-46.107 -35.698)">
    <g id="Grupo_5" data-name="Grupo 5" transform="translate(48.805 36.965)">
      <path id="Trazado_42" data-name="Trazado 42" d="M598.594,82.838l-.055.268,0,.026Z" transform="translate(-433.843 -69.821)" fill="#4d4d4d"/>
      <path id="Trazado_43" data-name="Trazado 43" d="M568.305,93.878l.955-5.439.269-1.53h-1.58a13.492,13.492,0,0,1,.074,1.415c0,5.59-4.1,11.624-10.718,11.624a10.268,10.268,0,0,1-2.86-.38c.012.012.023.025.035.038a7.439,7.439,0,0,0,5.475,2.009,9.136,9.136,0,0,0,5.827-2.068l.584-.47-.4-.4.662-3.7h.84C567.869,94.979,568.111,94.979,568.305,93.878Z" transform="translate(-403.11 -72.658)" fill="#4d4d4d"/>
      <path id="Trazado_44" data-name="Trazado 44" d="M562.7,89.6c.333,0,.777-.442,1.209-1.221a14.417,14.417,0,0,1,1.4-5.108c.044-.5.069-1.013.069-1.547a3.091,3.091,0,0,0-.454-1.895c-.037-.044-.06-.072-.173-.072-.916,0-2.676,3.326-2.676,7.876a3.085,3.085,0,0,0,.455,1.894C562.563,89.573,562.587,89.6,562.7,89.6Z" transform="translate(-408.426 -67.675)" fill="#4d4d4d"/>
      <path id="Trazado_45" data-name="Trazado 45" d="M523.809,90.122c.441,0,.948-.215,2.229-1.3l.974-5.571h1.078a12.667,12.667,0,0,1,.716-1.667h-3.681l-1.287,7.363a3.434,3.434,0,0,0-.079,1.178Z" transform="translate(-381.707 -68.943)" fill="#4d4d4d"/>
      <path id="Trazado_46" data-name="Trazado 46" d="M533.7,56.425l-1.853-1.853-.547,3.175h2.172Z" transform="translate(-386.981 -50.12)" fill="#4d4d4d"/>
      <path id="Trazado_47" data-name="Trazado 47" d="M521.582,119.23a7.409,7.409,0,0,1-1.09-1.392l-.062.049-.082.082c-1.518,1.518-3.93,3.536-7.34,3.536a6.834,6.834,0,0,1-1.037-.08,3.6,3.6,0,0,0,.458.565,4.407,4.407,0,0,0,3.23,1.182c2.876,0,5-1.576,6.7-3.27l0,0A7.351,7.351,0,0,1,521.582,119.23Z" transform="translate(-373.505 -94.215)" fill="#4d4d4d"/>
      <path id="Trazado_48" data-name="Trazado 48" d="M463.481,55.657c.028-1.3.941-3.168,3.8-3.168.507,0,1.028.021,1.546.06a2.1,2.1,0,0,0-.494-.815,3.564,3.564,0,0,0-2.509-.837c-1.041,0-3.464.249-3.464,2.557A2.786,2.786,0,0,0,463.481,55.657Z" transform="translate(-338.93 -47.559)" fill="#4d4d4d"/>
      <path id="Trazado_49" data-name="Trazado 49" d="M457.447,117.625a5.162,5.162,0,0,1-1.128-2.853,9.262,9.262,0,0,1-2.03,3.857c-2.135,2.43-5.592,3.89-9.8,3.89a15.786,15.786,0,0,1-6.3-1.281l.87.87c1.935.683,4.094,2.077,8.077,2.077,5.3,0,9.279-2.377,10.678-6.17-.035-.033-.073-.062-.107-.1C457.625,117.831,457.536,117.731,457.447,117.625Z" transform="translate(-322.086 -92.078)" fill="#4d4d4d"/>
      <path id="Trazado_50" data-name="Trazado 50" d="M491.892,68.815l.3-1.667h-2.408l1.667,1.667Z" transform="translate(-358.042 -58.885)" fill="#4d4d4d"/>
      <path id="Trazado_51" data-name="Trazado 51" d="M410.8,75.145a8.51,8.51,0,0,1-.655-.959,7.51,7.51,0,0,1-.919-2.5l-.457,2.605-.261,1.488-.933-.213a4.339,4.339,0,0,0-.951-.122,1.225,1.225,0,0,0-.843.233,2.884,2.884,0,0,0-.6,1.586,7.878,7.878,0,0,1-2.315,4.56,9.148,9.148,0,0,1-5.477,2.42v.287l.6.055.689.062a17.965,17.965,0,0,1,3.84.622,7.04,7.04,0,0,0,2.353-1.514c.135-.135.259-.269.376-.4.014-1,.016-1.974,0-2.869l-.014-.923h1.722a3.481,3.481,0,0,1,.83-1.952c.433-.433,1.261-.67,2.639-.355Z" transform="translate(-293.647 -62.051)" fill="#4d4d4d"/>
      <path id="Trazado_52" data-name="Trazado 52" d="M391.375,84.1c.406,0,1.191-.991,1.588-3.118.279-1.524.1-2.4-.139-2.686a.253.253,0,0,0-.228-.1c-.459,0-1.305.986-1.664,3.1a3.775,3.775,0,0,0,.188,2.686A.288.288,0,0,0,391.375,84.1Z" transform="translate(-289.058 -66.587)" fill="#4d4d4d"/>
      <path id="Trazado_53" data-name="Trazado 53" d="M379.212,137.259c-.226-.039-.534-.08-.95-.119l-.436-.043a27.039,27.039,0,0,1-4.577-.722c-.819.375-1.326.679-1.359.972.107.1.738.539,3.659.539A9.022,9.022,0,0,0,379.212,137.259Z" transform="translate(-275.872 -107.135)" fill="#4d4d4d"/>
      <path id="Trazado_54" data-name="Trazado 54" d="M363.658,98.655l.151-.848A6.467,6.467,0,0,1,362.358,95h-.238l-.905,5.109a1.954,1.954,0,0,0-.039.486,1.5,1.5,0,0,0,.286.022h.729A5.466,5.466,0,0,1,363.658,98.655Z" transform="translate(-268.402 -78.299)" fill="#4d4d4d"/>
      <path id="Trazado_55" data-name="Trazado 55" d="M303.808,55.589a4.039,4.039,0,0,0,3.169-3.783,2.8,2.8,0,0,0-.748-2.048l-1.022-1.022a4.7,4.7,0,0,1,.028.495,4.49,4.49,0,0,1-.465,1.987,4.911,4.911,0,0,1-1.214,1.556l.638.638Z" transform="translate(-228.243 -46.052)" fill="#4d4d4d"/>
      <path id="Trazado_56" data-name="Trazado 56" d="M274.311,46.42a3.441,3.441,0,0,1-.508-1.038,4.373,4.373,0,0,1-.179-1.262,4.561,4.561,0,0,1,1.032-2.867l-1.375-1.375-1.164,6.613-.68,3.86,2.355-.981Z" transform="translate(-205.857 -39.878)" fill="#4d4d4d"/>
      <path id="Trazado_57" data-name="Trazado 57" d="M168.531,120.914a9.135,9.135,0,0,0,5.805-2.05h0l.163-.128.068-.054-.533-.533-.209-.209.6-3.34a10.331,10.331,0,0,1-11.405,4.269l.035.038A7.44,7.44,0,0,0,168.531,120.914Z" transform="translate(-130.292 -91.958)" fill="#4d4d4d"/>
      <path id="Trazado_58" data-name="Trazado 58" d="M202.8,89.935c.178-.1.314-.365.432-1.032l1.214-6.9a6.647,6.647,0,0,0-1.409-2.108c-.045-.045-.1-.083-.142-.127a11.418,11.418,0,0,1,.527,3.579,12.564,12.564,0,0,1-1.916,6.586Z" transform="translate(-157.115 -67.682)" fill="#4d4d4d"/>
      <path id="Trazado_59" data-name="Trazado 59" d="M171.274,89.6c.333,0,.778-.442,1.209-1.221a14.431,14.431,0,0,1,1.4-5.108c.044-.5.069-1.013.069-1.547a3.089,3.089,0,0,0-.455-1.895c-.037-.044-.06-.072-.173-.072-.916,0-2.676,3.326-2.676,7.876a3.087,3.087,0,0,0,.455,1.894C171.138,89.573,171.161,89.6,171.274,89.6Z" transform="translate(-135.607 -67.675)" fill="#4d4d4d"/>
      <path id="Trazado_60" data-name="Trazado 60" d="M96.453,106.237l.184.013,1.016-5.825q-.44-.954-.8-1.944H95.814L94.764,104.5c-.149.828-.058,1.157.044,1.288C94.931,105.95,95.318,106.157,96.453,106.237Z" transform="translate(-82.663 -80.723)" fill="#4d4d4d"/>
      <path id="Trazado_61" data-name="Trazado 61" d="M104.084,51.418c-.3,0-.6,0-.887.006l-1.542,8.693h.262a12,12,0,0,0,1.949-.148l1.214-6.845c.551-.039,1.1-.039,1.655-.039a11.888,11.888,0,0,1,1.612.1C107.939,52.17,106.846,51.418,104.084,51.418Z" transform="translate(-87.521 -47.921)" fill="#4d4d4d"/>
      <path id="Trazado_62" data-name="Trazado 62" d="M60.386,63.317l.5-2.868.518-2.946.4-2.249a12.666,12.666,0,0,0-2.306.934,3.613,3.613,0,0,1,.442,2.672,4.318,4.318,0,0,1-2.986,3.3,4.891,4.891,0,0,1-1.533.248c-.14,0-.276-.006-.411-.017l.857.856a3.034,3.034,0,0,0,2.206.827A3.992,3.992,0,0,0,60.386,63.317Z" transform="translate(-55.01 -50.595)" fill="#4d4d4d"/>
      <path id="Trazado_63" data-name="Trazado 63" d="M140.27,58.368a6.317,6.317,0,0,0-1.837-4.362c-.066-.066-.138-.128-.208-.192a8.171,8.171,0,0,1,.317,2.3c0,4.09-2.417,7.487-6.669,9.432a24.615,24.615,0,0,0,1.074,2.224l.435-.152a14.219,14.219,0,0,0,2.375-1.192A12.2,12.2,0,0,1,140.27,58.368Z" transform="translate(-108.583 -49.591)" fill="#4d4d4d"/>
      <path id="Trazado_64" data-name="Trazado 64" d="M690.1,113.827c-2.452,2.241-5.519,4.532-9.674,4.532a10.141,10.141,0,0,1-2.513-.294c.067.076.13.156.2.228a6.729,6.729,0,0,0,4.963,1.733c3.861,0,6.776-2.206,9.06-4.294l-1.487-2.408Z" transform="translate(-489.168 -91.069)" fill="#4d4d4d"/>
      <path id="Trazado_65" data-name="Trazado 65" d="M698.59,78.618c-.1-.1-.211-.195-.321-.288a7.867,7.867,0,0,1,.272,2.085,9.2,9.2,0,0,1-.261,2.1l-.108.461-10.326,4.108a1.944,1.944,0,0,0,1.435.459,8.884,8.884,0,0,0,4.914-2.169l.284-.224h.768l.814,1.318,3.987-1.586a8.256,8.256,0,0,0,.237-1.891A6.031,6.031,0,0,0,698.59,78.618Z" transform="translate(-496.089 -66.679)" fill="#4d4d4d"/>
      <path id="Trazado_66" data-name="Trazado 66" d="M691.183,79.843c0-.682-.16-.851-.167-.857h0a.255.255,0,0,0-.066-.007c-.669,0-1.594,1.1-2.236,2.973l2.364-1A5.648,5.648,0,0,0,691.183,79.843Z" transform="translate(-496.694 -67.131)" fill="#4d4d4d"/>
      <path id="Trazado_67" data-name="Trazado 67" d="M619.547,119.971l-1.855-1.855,0,0-.547,3.072H598.851l1.667,1.667h18.515l.473-2.639h0Z" transform="translate(-434.06 -94.407)" fill="#4d4d4d"/>
      <path id="Trazado_68" data-name="Trazado 68" d="M231.52,129.918h35.706a5.806,5.806,0,0,1,1.789-1.491c.107-.061.216-.119.326-.176H230.534A3.931,3.931,0,0,1,231.52,129.918Z" transform="translate(-177.348 -101.473)" fill="#4d4d4d"/>
      <path id="Trazado_69" data-name="Trazado 69" d="M244.158,39.889l-.432,2.455,1.986-.9Z" transform="translate(-186.542 -39.885)" fill="#4d4d4d"/>
      <path id="Trazado_70" data-name="Trazado 70" d="M72.8,132.461l-.826-.063c-1.653-.127-3.864-.273-6.312-.273-.511,0-1.036.008-1.581.023-1.094.03-2.277.091-3.645.187l1.732,1.732c2.049-.158,4.1-.276,6.145-.276,2.246,0,4.333.118,6.382.276l.473-2.757-1.853-1.853Z" transform="translate(-58.795 -102.313)" fill="#4d4d4d"/>
      <path id="Trazado_71" data-name="Trazado 71" d="M175.257,137.517c-.609,2.236-3.077,4.894-11.369,4.894a34.308,34.308,0,0,1-14.014-2.772l.419.419a32.3,32.3,0,0,0,16.246,4.02c7.721,0,10.636-2.363,10.636-5.318a2.811,2.811,0,0,0-.906-2.009c-.041-.041-.085-.079-.128-.118h0l-.724-.724c.007.092.014.184.014.277A5.082,5.082,0,0,1,175.257,137.517Z" transform="translate(-121.13 -106.809)" fill="#4d4d4d"/>
      <path id="Trazado_72" data-name="Trazado 72" d="M499.7,46.1q-.061.3-.119.592c-.112.565-.215,1.108-.3,1.6l-.106.6-.045.336,2.5-1.559c.356-1.679.763-3.41,1.1-4.6l-1.895-1.895C500.488,42.49,500.06,44.358,499.7,46.1Z" transform="translate(-364.557 -40.782)" fill="#4d4d4d"/>
      <path id="Trazado_73" data-name="Trazado 73" d="M440.612,106.34a5.68,5.68,0,0,0,1.062,1.551c.1.1.21.2.317.289a12.275,12.275,0,0,1-.553-2.665l-1.594-1.594A9.689,9.689,0,0,0,440.612,106.34Z" transform="translate(-323.234 -84.515)" fill="#4d4d4d"/>
      <path id="Trazado_74" data-name="Trazado 74" d="M659.336,74.65l-.028-.028.005,0-.681-.68a7.062,7.062,0,0,1,.119,1.287,9.771,9.771,0,0,1-.121,1.516l-1.54,8.686a1.96,1.96,0,0,0-.038.486,1.5,1.5,0,0,0,.286.022H658l.427.427.138.138.072-.454-.039-.112h.011a10.249,10.249,0,0,1-.369-2.794,14.144,14.144,0,0,1,1.915-7.277,3.245,3.245,0,0,0-.82-1.223Z" transform="translate(-474.624 -63.624)" fill="#4d4d4d"/>
      <path id="Trazado_75" data-name="Trazado 75" d="M450.556,92.8l3.523,2.678c0-.011,0-.022,0-.032,0-1.179-.516-1.786-1.97-2.9l-3.935-2.991c-.623-.474-1.169-.926-1.644-1.354a7.669,7.669,0,0,0,1.857,2.752A21.833,21.833,0,0,0,450.556,92.8Z" transform="translate(-327.896 -73.557)" fill="#4d4d4d"/>
      <path id="Trazado_76" data-name="Trazado 76" d="M265.213,92.907h1.105a.563.563,0,0,0,.533-.448l.038-.218,1.306-7.4v-.008h-.964l-.893-.893-1.5,8.523A.369.369,0,0,0,265.213,92.907Z" transform="translate(-201.252 -70.586)" fill="#4d4d4d"/>
      <path id="Trazado_77" data-name="Trazado 77" d="M297.588,92.907h1.105a.563.563,0,0,0,.533-.448l.041-.229,1.3-7.393v-.008h-.965l-.892-.893-1.5,8.523A.369.369,0,0,0,297.588,92.907Z" transform="translate(-223.817 -70.586)" fill="#4d4d4d"/>
      <path id="Trazado_78" data-name="Trazado 78" d="M232.837,74.457h1.106a.563.563,0,0,0,.533-.448l.035-.2,2.726-15.454h-.964l-.893-.892L232.461,74.01A.369.369,0,0,0,232.837,74.457Z" transform="translate(-178.686 -52.137)" fill="#4d4d4d"/>
      <path id="Trazado_79" data-name="Trazado 79" d="M329.926,93.885h.948a.562.562,0,0,0,.533-.448l1.276-7.253.094-.536.051-.288-.021,0-.094-.017-1.9,1.382-.088.064v0l-1.173,6.649A.369.369,0,0,0,329.926,93.885Z" transform="translate(-246.356 -71.564)" fill="#4d4d4d"/>
      <path id="Trazado_80" data-name="Trazado 80" d="M625.8,93.885h.948a.562.562,0,0,0,.533-.448l1.305-7.42.062-.354.053-.3-.021,0-.094-.017-1.909,1.387-.081.059v0l-1.172,6.649A.369.369,0,0,0,625.8,93.885Z" transform="translate(-452.579 -71.564)" fill="#4d4d4d"/>
      <path id="Trazado_81" data-name="Trazado 81" d="M381.366,132.28l-.059-.074a7.826,7.826,0,0,1-3.4,5.5c-2.339,1.674-5.7,2.558-9.713,2.558a19.382,19.382,0,0,1-5.442-.666c.079.1.162.192.255.284,1.3,1.3,3.979,2.048,7.839,2.048,6.312,0,11.352-3.218,11.352-7.138A4.128,4.128,0,0,0,381.366,132.28Z" transform="translate(-269.504 -104.229)" fill="#4d4d4d"/>
    </g>
    <g id="Grupo_6" data-name="Grupo 6" transform="translate(46.107 35.698)">
      <path id="Trazado_82" data-name="Trazado 82" d="M149.242,81.3a8.188,8.188,0,0,1-2.127-6.027c0-5.515,3.979-10.715,9.809-10.715a7.441,7.441,0,0,1,5.476,2.009,8.188,8.188,0,0,1,2.127,6.027c0,5.515-3.979,10.715-9.809,10.715A7.44,7.44,0,0,1,149.242,81.3Zm9.139-10.321a3.816,3.816,0,0,0-.67-2.482,1.071,1.071,0,0,0-.867-.394c-1.852,0-3.585,4.255-3.585,8.785a3.814,3.814,0,0,0,.67,2.482,1.07,1.07,0,0,0,.867.394C156.648,79.765,158.382,75.51,158.382,70.98Z" transform="translate(-116.508 -55.814)" fill="#fff"/>
      <path id="Trazado_83" data-name="Trazado 83" d="M239.737,43.655c.079-.473-.079-.63-.551-.63h-1.221l.394-2.285L246.631,37h.2l-3.939,22.375c-.2,1.142.118,1.576,1.142,1.576h.079l-.473,2.639h-8.9l.473-2.639h.079c1.024,0,1.5-.512,1.733-1.851Z" transform="translate(-177.578 -36.604)" fill="#fff"/>
      <path id="Trazado_84" data-name="Trazado 84" d="M270.689,54.047c.078-.472-.079-.63-.552-.63h-1.221l.394-2.285,8.233-3.427h.2l-2.482,14.024c-.2,1.142.118,1.576,1.142,1.576h.079l-.473,2.639h-8.9l.473-2.639h.079c1.024,0,1.5-.512,1.733-1.851Zm1.5-7.681a2.8,2.8,0,0,1-.748-2.049,4.187,4.187,0,0,1,4.373-3.939,3.1,3.1,0,0,1,2.285.827,2.8,2.8,0,0,1,.748,2.048,4.186,4.186,0,0,1-4.372,3.939A3.1,3.1,0,0,1,272.186,46.366Z" transform="translate(-200.139 -38.96)" fill="#fff"/>
      <path id="Trazado_85" data-name="Trazado 85" d="M299.475,82.8l.473-2.639h.079c1.024,0,1.5-.512,1.734-1.851l1.3-7.406c.078-.472-.079-.63-.552-.63h-1.221l.394-2.285,7.839-3.427h.2l-.512,3.073.512-.394c2.088-1.576,3.743-2.679,5.673-2.679,2.6,0,3.9,2.048,3.388,5.357l-1.537,8.666c-.2,1.142.118,1.576,1.142,1.576h.079L317.99,82.8h-8.9l.473-2.639h.079c1.024,0,1.5-.512,1.733-1.851l1.261-7.091c.2-1.1-.2-1.5-.788-1.5a2.353,2.353,0,0,0-1.34.67l-1.654,1.261-1.221,6.933c-.2,1.142.118,1.576,1.142,1.576h.079l-.473,2.639Z" transform="translate(-222.701 -55.814)" fill="#fff"/>
      <path id="Trazado_86" data-name="Trazado 86" d="M375.791,69.562c-1.379-.315-2.206-.078-2.639.355-1.339,1.34-.236,3.467-2.915,6.145a8.971,8.971,0,0,1-6.421,2.246,14.075,14.075,0,0,1-1.851-.158c-.473.236-.709.473-.709.945,0,.906,1.024.945,5.358,1.34,2.167.2,4.1.394,5.121,1.418a2.987,2.987,0,0,1,.867,2.206c0,4.294-4.1,8-12.251,8-3.86,0-6.539-.748-7.839-2.048a2.812,2.812,0,0,1-.906-2.048c0-2.167,1.536-3.309,4.766-4.373a3.011,3.011,0,0,1-.512-1.733,5.021,5.021,0,0,1,3.191-4.885,5.842,5.842,0,0,1-2.6-6.145c.67-3.821,4.1-6.264,8.588-6.264,2.639,0,4.333.67,5.594,1.93a4.249,4.249,0,0,1,.827,1.1c.867-1.812,2.679-2.718,5.121-2.521Zm-9.415,17.372c0-.512-.551-.748-2.245-.906a26.515,26.515,0,0,1-5.16-.827c-1.34.591-2.206,1.064-2.206,1.97s1.339,1.418,4.569,1.418C364.643,88.589,366.376,87.564,366.376,86.934Zm.079-15.442c.434-2.364-.039-3.86-1.261-3.86-1.142,0-2.166,1.537-2.56,3.86-.394,2.285.079,3.861,1.34,3.861C365.076,75.353,366.022,73.816,366.455,71.492Z" transform="translate(-259.034 -55.814)" fill="#fff"/>
      <path id="Trazado_87" data-name="Trazado 87" d="M425.312,63.9c.2-2.639.276-6.106.236-8.666h3.033a9.26,9.26,0,0,0,2.245,5.594,6.262,6.262,0,0,0,4.727,1.851c2.718,0,4.57-1.733,4.57-3.979,0-1.615-.788-2.443-2.324-3.624l-3.939-2.994a21.825,21.825,0,0,1-2.167-1.852,7.23,7.23,0,0,1-2.324-5.594c0-5.358,4.333-8.942,10.479-8.942,4.058,0,4.964.945,8.706.827-.552,1.97-1.3,5.4-1.694,7.642h-3.073l.118-.669a3.463,3.463,0,0,0-.828-3.152,4.412,4.412,0,0,0-3.151-1.1c-2.718,0-4.373,1.3-4.373,3.466,0,1.537.828,2.482,2.4,3.7l3.939,2.994a21.314,21.314,0,0,1,2.167,1.891,7.727,7.727,0,0,1,2.6,5.712c0,5.594-4.57,9.336-11.227,9.336C430.039,66.346,427.991,63.785,425.312,63.9Z" transform="translate(-310.408 -35.698)" fill="#fff"/>
      <path id="Trazado_88" data-name="Trazado 88" d="M506.145,70.046c.788,0,1.5-.394,2.836-1.537l1.261,2.56c-1.694,1.694-3.821,3.27-6.7,3.27a4.407,4.407,0,0,1-3.23-1.182c-.985-.985-1.418-2.56-1.024-4.806l1.536-8.666H498.5l.434-2.4,8.981-5.594h.2l-.828,4.806h5.476l-2.048,3.191H506.7L505.278,67.8C504.963,69.534,505.317,70.046,506.145,70.046Z" transform="translate(-361.421 -46.844)" fill="#fff"/>
      <path id="Trazado_89" data-name="Trazado 89" d="M540.668,81.3a8.188,8.188,0,0,1-2.127-6.027c0-5.515,3.979-10.715,9.809-10.715a7.441,7.441,0,0,1,5.476,2.009,8.187,8.187,0,0,1,2.127,6.027c0,5.515-3.979,10.715-9.809,10.715A7.439,7.439,0,0,1,540.668,81.3Zm9.139-10.321a3.818,3.818,0,0,0-.67-2.482,1.071,1.071,0,0,0-.867-.394c-1.851,0-3.585,4.255-3.585,8.785a3.814,3.814,0,0,0,.67,2.482,1.069,1.069,0,0,0,.867.394C548.074,79.765,549.808,75.51,549.808,70.98Z" transform="translate(-389.327 -55.814)" fill="#fff"/>
      <path id="Trazado_90" data-name="Trazado 90" d="M101.61,58.467l3.939-22.375h-.2L97.08,39.834l-.394,2.285h1.221c.473,0,.63.157.551.63L95.74,58.192c-.236,1.339-.709,1.851-1.733,1.851h-.079l-.473,2.639h.318a2.2,2.2,0,0,1,2.245,2.285c0,1.458-1.339,2.915-5.121,2.915a19.912,19.912,0,0,1-13.985-6.264,26.88,26.88,0,0,1-6.067-9.336c4.53-1.773,6.933-5.042,6.933-8.943a6.383,6.383,0,0,0-1.851-4.688C74,36.722,70.57,35.7,65.725,35.7c-11.148,0-19.618,3.939-19.618,9.1a2.947,2.947,0,0,0,.827,2.088,3.034,3.034,0,0,0,2.206.827,3.609,3.609,0,0,0,3.624-2.8,2.431,2.431,0,0,0-.985-2.679,13.419,13.419,0,0,1,4.885-2.009L53.119,60.4c-.355,1.97-.827,2.639-3.191,2.836l-.473,2.757c2.049-.158,4.1-.276,6.145-.276,2.246,0,4.333.118,6.382.276l.473-2.757c-2.246-.158-2.876-.827-2.521-2.8l1.182-6.776h2.442A23.883,23.883,0,0,0,69.113,62.8c5.4,5.4,12.8,8.706,22.375,8.706,7.721,0,10.636-2.363,10.636-5.318a2.811,2.811,0,0,0-.906-2.009,7.478,7.478,0,0,0-2.324-1.457c-.078-.039,0-.039,0-.039h3.464l.473-2.639h-.079C101.728,60.043,101.413,59.609,101.61,58.467ZM63.125,49.919c-.394,0-.867,0-1.339-.039L63.637,39.44c.551-.039,1.1-.039,1.655-.039,3.86,0,5.4,1.418,5.4,4.1C70.688,46.846,68.8,49.919,63.125,49.919Z" transform="translate(-46.107 -35.698)" fill="#fff"/>
      <path id="Trazado_91" data-name="Trazado 91" d="M595.351,82.8l.473-2.639h.079c1.024,0,1.5-.512,1.734-1.851l1.3-7.406c.078-.472-.079-.63-.552-.63h-1.221l.394-2.285,7.839-3.427h.2l-.512,3.073.512-.394c2.088-1.576,3.743-2.679,5.673-2.679,2.6,0,3.9,2.048,3.388,5.357l-1.537,8.666c-.2,1.142.118,1.576,1.142,1.576h.079l-.473,2.639h-8.9l.473-2.639h.079c1.024,0,1.5-.512,1.733-1.851l1.261-7.091c.2-1.1-.2-1.5-.788-1.5a2.354,2.354,0,0,0-1.34.67l-1.654,1.261-1.221,6.933c-.2,1.142.118,1.576,1.142,1.576h.079l-.473,2.639Z" transform="translate(-428.923 -55.814)" fill="#fff"/>
      <path id="Trazado_92" data-name="Trazado 92" d="M679.527,79.016c-2.285,2.088-5.2,4.294-9.06,4.294a6.729,6.729,0,0,1-4.963-1.733,7.013,7.013,0,0,1-1.773-5.121c0-6.815,4.53-11.9,10.557-11.9a6.432,6.432,0,0,1,4.767,1.733,6.031,6.031,0,0,1,1.694,4.373,8.259,8.259,0,0,1-.237,1.891L669.718,76.85A2.45,2.45,0,0,0,672.4,78.7a9.67,9.67,0,0,0,5.476-2.364ZM669.875,73.3l4.491-1.891a6.466,6.466,0,0,0,.236-1.773c0-1.221-.433-1.773-1.142-1.773C671.885,67.868,670.466,70.271,669.875,73.3Z" transform="translate(-476.582 -55.814)" fill="#fff"/>
    </g>
    <g id="Grupo_7" data-name="Grupo 7" transform="translate(46.562 36.153)">
      <path id="Trazado_93" data-name="Trazado 93" d="M155.763,83.9a7,7,0,0,1-5.154-1.876,7.754,7.754,0,0,1-1.994-5.706c0-4.935,3.576-10.26,9.354-10.26a7,7,0,0,1,5.155,1.876,7.754,7.754,0,0,1,1.994,5.706C165.118,78.575,161.542,83.9,155.763,83.9ZM157.891,68.7c-2.38,0-4.039,4.869-4.039,9.239a4.235,4.235,0,0,0,.778,2.776,1.53,1.53,0,0,0,1.214.555c2.38,0,4.039-4.869,4.039-9.239a4.236,4.236,0,0,0-.777-2.776A1.531,1.531,0,0,0,157.891,68.7Z" transform="translate(-118.008 -57.314)" fill="#fff"/>
      <path id="Trazado_94" data-name="Trazado 94" d="M236.527,64.679l.313-1.745c1.326-.137,1.7-1.185,1.877-2.212l2.718-15.442a1.027,1.027,0,0,0-.164-.858,1.049,1.049,0,0,0-.835-.305h-.681l.261-1.516,7.483-3.385L243.691,60.84a2.009,2.009,0,0,0,.244,1.627,1.394,1.394,0,0,0,.887.451l-.315,1.761Z" transform="translate(-179.282 -38.604)" fill="#fff"/>
      <path id="Trazado_95" data-name="Trazado 95" d="M268.9,66.535l.313-1.745c1.326-.137,1.7-1.185,1.877-2.212l1.3-7.406a1.024,1.024,0,0,0-.164-.858,1.05,1.05,0,0,0-.835-.305h-.682l.26-1.507,7.448-3.1L276.061,62.7a2.011,2.011,0,0,0,.244,1.627,1.393,1.393,0,0,0,.887.451l-.315,1.761Zm6.824-18.751a2.667,2.667,0,0,1-1.964-.694,2.346,2.346,0,0,1-.615-1.727,3.725,3.725,0,0,1,3.918-3.485,2.666,2.666,0,0,1,1.963.694,2.344,2.344,0,0,1,.615,1.727A3.725,3.725,0,0,1,275.721,47.784Z" transform="translate(-201.843 -40.46)" fill="#fff"/>
      <path id="Trazado_96" data-name="Trazado 96" d="M310.88,83.389l.313-1.745c1.326-.137,1.7-1.185,1.877-2.212l1.26-7.09a1.925,1.925,0,0,0-.255-1.613,1.217,1.217,0,0,0-.98-.418,2.724,2.724,0,0,0-1.621.767l-1.79,1.364-1.252,7.108a2.01,2.01,0,0,0,.244,1.627,1.394,1.394,0,0,0,.887.451l-.315,1.761h-7.979l.312-1.745c1.326-.137,1.7-1.185,1.877-2.212l1.3-7.406a1.024,1.024,0,0,0-.164-.858,1.049,1.049,0,0,0-.835-.305h-.682l.261-1.512,7.059-3.086-.58,3.478,1.428-1.1c1.939-1.463,3.57-2.584,5.4-2.584a2.81,2.81,0,0,1,2.248.917,4.825,4.825,0,0,1,.69,3.917l-1.534,8.657a2.008,2.008,0,0,0,.244,1.627,1.393,1.393,0,0,0,.887.451l-.315,1.761Z" transform="translate(-224.405 -57.314)" fill="#fff"/>
      <path id="Trazado_97" data-name="Trazado 97" d="M361.395,92.646c-3.613,0-6.283-.68-7.518-1.915A2.369,2.369,0,0,1,353.1,89c0-1.8,1.207-2.872,4.454-3.941l.567-.187-.331-.5a2.557,2.557,0,0,1-.435-1.481,4.563,4.563,0,0,1,2.94-4.478l.7-.352-.657-.434a5.414,5.414,0,0,1-2.4-5.687c.627-3.577,3.822-5.888,8.14-5.888,2.4,0,4.029.554,5.272,1.8a3.786,3.786,0,0,1,.742.985l.415.832.4-.839a4.155,4.155,0,0,1,4.067-2.289h.108l-.619,3.528a5.086,5.086,0,0,0-.786-.065,2.443,2.443,0,0,0-1.807.632,4.046,4.046,0,0,0-.974,2.287,6.519,6.519,0,0,1-1.941,3.859,8.519,8.519,0,0,1-6.1,2.112,13.571,13.571,0,0,1-1.791-.154l-.138-.018-.125.063a1.445,1.445,0,0,0-.96,1.352c0,1.271,1.077,1.368,5.082,1.73l.688.062c1.922.175,3.909.355,4.841,1.287a2.531,2.531,0,0,1,.733,1.885C373.191,89.686,368.561,92.646,361.395,92.646Zm-1.562-6.816c-1.161.512-2.477,1.093-2.477,2.386,0,1.66,2.685,1.873,5.024,1.873,3.441,0,5.5-1.072,5.5-2.109s-1.2-1.223-2.658-1.358l-.429-.042a23.488,23.488,0,0,1-4.636-.766l-.164-.052Zm6.407-17.608c-1.391,0-2.572,1.664-3.009,4.239-.3,1.718-.122,3.066.49,3.793a1.647,1.647,0,0,0,1.3.6c1.34,0,2.434-1.582,2.928-4.232.324-1.765.174-3.081-.432-3.808A1.609,1.609,0,0,0,366.24,68.223Z" transform="translate(-260.534 -57.314)" fill="#fff"/>
      <path id="Trazado_98" data-name="Trazado 98" d="M436.558,66.937a15.237,15.237,0,0,1-6.564-1.506,9.573,9.573,0,0,0-3.073-.93c.155-2.311.234-5.253.209-7.763H429.3a9.505,9.505,0,0,0,2.33,5.461,6.7,6.7,0,0,0,5.048,1.985c2.911,0,5.024-1.864,5.024-4.433,0-1.912-1.037-2.858-2.5-3.985l-3.941-3a21.262,21.262,0,0,1-2.12-1.811,6.784,6.784,0,0,1-2.191-5.272c0-5.077,4.028-8.488,10.024-8.488a21.144,21.144,0,0,1,4.319.438,18.581,18.581,0,0,0,3.754.4h.036c-.482,1.835-1.1,4.622-1.478,6.723h-2.151l.024-.136a3.907,3.907,0,0,0-.954-3.552,4.843,4.843,0,0,0-3.473-1.236c-2.977,0-4.827,1.5-4.827,3.921,0,1.726.946,2.8,2.579,4.062l3.943,3a20.777,20.777,0,0,1,2.12,1.85,7.258,7.258,0,0,1,2.467,5.391C447.33,63.367,443,66.937,436.558,66.937Z" transform="translate(-311.984 -37.198)" fill="#fff"/>
      <path id="Trazado_99" data-name="Trazado 99" d="M504.8,75.688a3.949,3.949,0,0,1-2.909-1.049c-.943-.943-1.245-2.425-.9-4.406l1.631-9.2H500.3l.3-1.669,8.171-5.089L508,58.752h5.183l-1.465,2.282h-4.152l-1.484,8.491c-.214,1.174-.145,1.9.222,2.336a1.348,1.348,0,0,0,1.092.442,4.224,4.224,0,0,0,2.683-1.273l.861,1.749A8.8,8.8,0,0,1,504.8,75.688Z" transform="translate(-363.126 -49.101)" fill="#fff"/>
      <path id="Trazado_100" data-name="Trazado 100" d="M547.189,83.9a7,7,0,0,1-5.154-1.876,7.754,7.754,0,0,1-1.994-5.706c0-4.935,3.576-10.26,9.354-10.26a7,7,0,0,1,5.155,1.876,7.754,7.754,0,0,1,1.994,5.706C556.544,78.575,552.968,83.9,547.189,83.9ZM549.317,68.7c-2.38,0-4.039,4.869-4.039,9.239a4.235,4.235,0,0,0,.778,2.776,1.53,1.53,0,0,0,1.214.555c2.38,0,4.039-4.869,4.039-9.239a4.238,4.238,0,0,0-.777-2.776A1.532,1.532,0,0,0,549.317,68.7Z" transform="translate(-390.827 -57.314)" fill="#fff"/>
      <path id="Trazado_101" data-name="Trazado 101" d="M92.534,72.1c-8.945,0-16.365-2.884-22.054-8.573a23.464,23.464,0,0,1-5.445-8.963l-.1-.309H61.779L60.532,61.4a2.841,2.841,0,0,0,.311,2.359,2.937,2.937,0,0,0,2.127.923l-.32,1.866c-1.624-.121-3.709-.246-6-.246-1.641,0-3.387.073-5.6.234l.316-1.843c2.344-.271,2.891-1.187,3.249-3.174l3.664-20.847-.668.154a13.843,13.843,0,0,0-5.051,2.085l-.543.4.573.355a1.975,1.975,0,0,1,.778,2.2A3.175,3.175,0,0,1,50.186,48.3,2.592,2.592,0,0,1,48.3,47.61a2.5,2.5,0,0,1-.694-1.766C47.607,41,56.025,37.2,66.77,37.2c4.685,0,8.009.949,9.881,2.821a5.941,5.941,0,0,1,1.718,4.366A8.04,8.04,0,0,1,76.7,49.379a11.253,11.253,0,0,1-4.97,3.526l-.418.163.158.42a27.415,27.415,0,0,0,6.171,9.5,20.412,20.412,0,0,0,14.306,6.4c5.173,0,5.575-2.579,5.575-3.37a2.654,2.654,0,0,0-2.476-2.73l.314-1.755c1.326-.137,1.7-1.185,1.877-2.212l2.718-15.442a1.027,1.027,0,0,0-.164-.858,1.049,1.049,0,0,0-.835-.305h-.681l.261-1.516,7.483-3.385-3.807,21.625a2.009,2.009,0,0,0,.244,1.627,1.4,1.4,0,0,0,.887.451l-.315,1.761H99.939a.469.469,0,0,0-.2.9,7.045,7.045,0,0,1,2.206,1.372,2.363,2.363,0,0,1,.773,1.687C102.715,70.37,99.1,72.1,92.534,72.1Zm-26.2-32.105c-.55,0-1.119,0-1.687.041l-.353.025-2,11.279.5.041c.491.041.982.041,1.377.041,5.1,0,8.018-2.506,8.018-6.875C72.188,41.48,70.274,39.992,66.337,39.992Z" transform="translate(-47.607 -37.198)" fill="#fff"/>
      <path id="Trazado_102" data-name="Trazado 102" d="M606.756,83.389l.313-1.745c1.326-.137,1.7-1.185,1.877-2.212l1.26-7.09a1.925,1.925,0,0,0-.255-1.613,1.217,1.217,0,0,0-.98-.418,2.725,2.725,0,0,0-1.621.767l-1.79,1.364-1.252,7.108a2.01,2.01,0,0,0,.244,1.627,1.394,1.394,0,0,0,.887.451l-.315,1.761h-7.979l.312-1.745c1.326-.137,1.7-1.185,1.877-2.212l1.3-7.406a1.024,1.024,0,0,0-.164-.858,1.049,1.049,0,0,0-.835-.305h-.682l.261-1.512,7.059-3.086-.58,3.478,1.428-1.1c1.939-1.463,3.57-2.584,5.4-2.584a2.811,2.811,0,0,1,2.248.917,4.825,4.825,0,0,1,.69,3.917l-1.534,8.657a2.008,2.008,0,0,0,.244,1.627,1.393,1.393,0,0,0,.887.451l-.315,1.761Z" transform="translate(-430.627 -57.314)" fill="#fff"/>
      <path id="Trazado_103" data-name="Trazado 103" d="M671.512,83.9a6.313,6.313,0,0,1-4.642-1.6,6.62,6.62,0,0,1-1.64-4.8c0-6.523,4.343-11.442,10.1-11.442a5.956,5.956,0,0,1,4.445,1.6,5.578,5.578,0,0,1,1.561,4.052,7.617,7.617,0,0,1-.174,1.557l-10.934,4.35.089.381a2.9,2.9,0,0,0,3.121,2.2,9.684,9.684,0,0,0,5.352-2.153l1.192,1.93C677.776,81.959,675.049,83.9,671.512,83.9Zm2.994-15.442c-2,0-3.468,2.915-4.031,5.8l-.163.837,5.479-2.307.059-.212a6.909,6.909,0,0,0,.253-1.894C676.1,68.676,674.986,68.459,674.506,68.459Z" transform="translate(-478.082 -57.314)" fill="#fff"/>
    </g>
  </g>
</svg>
